<?xml version="1.0" standalone="no"?>
<!DOCTYPE svg PUBLIC "-//W3C//DTD SVG 20010904//EN"
 "http://www.w3.org/TR/2001/REC-SVG-20010904/DTD/svg10.dtd">
<svg version="1.0" xmlns="http://www.w3.org/2000/svg"
 width="1536.000000pt" height="1536.000000pt" viewBox="0 0 1536.000000 1536.000000"
 preserveAspectRatio="xMidYMid meet">
<metadata>
Created by potrace 1.10, written by Peter Selinger 2001-2011
</metadata>
<g transform="translate(0.000000,1536.000000) scale(0.100000,-0.100000)"
fill="#000000" stroke="none">
<path d="M6094 11943 c-64 -32 -65 -43 -64 -482 0 -442 -2 -427 71 -463 31
-15 83 -17 524 -17 469 -1 491 0 522 19 63 38 63 39 63 465 0 428 -1 435 -63
473 -34 22 -40 22 -528 21 -426 0 -498 -2 -525 -16z"/>
<path d="M8271 11268 c-147 -145 -359 -352 -471 -460 -113 -109 -300 -291
-416 -405 -115 -115 -305 -299 -422 -411 -116 -112 -278 -269 -359 -349 -587
-578 -697 -682 -721 -685 -9 -1 -51 -3 -92 -3 -134 -3 -913 -36 -972 -41 -54
-5 -57 -4 -62 18 -13 66 -26 173 -31 251 -4 49 -10 100 -16 114 -5 13 -9 41
-9 61 0 55 -33 252 -71 422 -75 336 -165 505 -305 571 -47 23 -57 24 -294 24
-214 0 -252 -2 -299 -19 -83 -29 -115 -52 -178 -125 -52 -60 -72 -93 -132
-221 l-16 -35 -105 -6 c-108 -7 -156 -16 -200 -40 -123 -67 -204 -229 -270
-539 -32 -148 -60 -500 -64 -780 -1 -156 13 -472 24 -525 4 -22 11 -69 15
-105 14 -144 68 -366 128 -525 53 -140 94 -189 194 -236 57 -26 72 -29 172
-29 105 0 109 -1 125 -25 9 -13 16 -29 16 -35 0 -27 68 -145 113 -195 107
-120 157 -135 477 -137 224 -2 237 -1 285 21 115 51 197 178 275 426 24 78 73
327 94 480 9 66 21 147 26 180 6 33 15 123 20 200 7 88 16 147 25 161 12 19
26 22 122 28 59 3 245 8 413 11 168 3 393 10 501 16 108 5 204 7 213 3 15 -6
16 -69 16 -709 0 -407 4 -714 9 -728 13 -34 53 -74 85 -87 18 -6 200 -10 510
-10 l483 0 34 23 c19 12 39 34 46 48 12 25 24 539 27 1194 l1 270 130 2 c72 1
220 -2 330 -7 110 -5 334 -12 498 -16 289 -7 299 -7 312 -28 8 -13 17 -84 24
-191 6 -93 16 -195 21 -225 8 -50 14 -89 39 -286 5 -34 11 -66 15 -72 3 -5 10
-36 15 -69 17 -106 77 -311 114 -393 28 -61 80 -143 108 -169 13 -12 46 -33
74 -46 45 -22 67 -25 225 -30 207 -7 359 5 424 34 81 35 159 121 211 230 26
53 50 103 54 111 6 12 36 16 127 21 150 7 217 32 286 105 57 62 120 232 163
439 9 44 21 100 26 125 49 217 72 718 49 1060 -11 167 -37 392 -50 425 -5 14
-10 38 -10 52 0 15 -6 49 -14 77 -8 28 -23 80 -32 116 -25 92 -78 206 -120
257 -71 87 -158 123 -297 123 -49 0 -97 5 -108 10 -18 10 -59 78 -59 99 0 6
-14 34 -32 63 -74 124 -137 179 -243 213 -53 18 -89 20 -300 20 -229 0 -242
-1 -287 -23 -126 -60 -229 -237 -282 -483 -9 -41 -25 -114 -36 -163 -11 -50
-20 -104 -20 -122 0 -17 -5 -44 -10 -61 -11 -29 -20 -100 -40 -308 -21 -221
-30 -279 -44 -293 -12 -12 -36 -13 -163 -3 -81 6 -308 16 -503 22 -554 16
-583 17 -592 31 -4 7 -8 121 -8 253 0 132 -3 303 -6 380 l-7 140 47 60 c25 33
111 146 190 250 80 105 178 233 218 285 41 52 130 168 199 258 68 90 184 240
257 335 73 95 146 190 162 212 17 22 36 47 43 55 7 8 42 53 77 99 36 46 82
105 102 130 50 61 72 101 57 101 -7 0 -132 -118 -278 -262z m688 -1769 c54
-88 100 -328 120 -624 10 -151 5 -637 -8 -696 -5 -24 -12 -78 -15 -119 -19
-223 -93 -430 -155 -430 -32 0 -91 92 -91 141 0 11 -4 29 -10 39 -19 36 -63
398 -53 438 5 22 9 23 52 17 38 -5 51 -3 72 14 23 18 27 31 37 128 22 204 9
419 -28 457 -11 12 -38 21 -70 24 -33 3 -54 10 -59 21 -14 27 20 301 54 429
22 85 39 124 71 161 33 40 59 39 83 0z m-4578 -461 c27 -23 41 -47 49 -85 10
-41 -1 -63 -30 -63 -31 0 -52 -38 -71 -127 -23 -109 -24 -193 -4 -325 17 -114
33 -148 70 -148 13 0 29 -8 34 -18 20 -37 -20 -150 -61 -176 -14 -9 -21 -6
-35 14 -27 38 -49 97 -68 185 -25 114 -26 467 -1 575 22 94 34 124 58 155 22
28 37 31 59 13z"/>
<path d="M6115 10643 c-26 -7 -64 -42 -78 -73 -18 -38 -12 -1230 6 -1230 7 0
125 111 263 248 138 136 391 384 563 551 171 167 318 316 326 332 19 35 19 67
1 110 -28 66 -9 64 -561 66 -275 0 -509 -1 -520 -4z"/>
</g>
</svg>
