<?xml version="1.0" standalone="no"?>
<!DOCTYPE svg PUBLIC "-//W3C//DTD SVG 20010904//EN"
 "http://www.w3.org/TR/2001/REC-SVG-20010904/DTD/svg10.dtd">
<svg version="1.0" xmlns="http://www.w3.org/2000/svg"
 width="1563.000000pt" height="1563.000000pt" viewBox="0 0 1563.000000 1563.000000"
 preserveAspectRatio="xMidYMid meet">

<g transform="translate(0.000000,1563.000000) scale(0.100000,-0.100000)"
fill="#000000" stroke="none">
<path d="M0 7815 l0 -7815 7815 0 7815 0 0 7815 0 7815 -3817 -1 c-2100 -1
-3746 -6 -3658 -10 774 -39 1594 -214 2337 -500 1342 -516 2538 -1418 3401
-2565 713 -949 1190 -2021 1416 -3185 55 -281 110 -717 123 -964 l3 -60 -245
0 -245 0 -17 190 c-130 1442 -666 2783 -1557 3890 -380 472 -848 925 -1316
1273 -1112 827 -2377 1303 -3765 1418 -250 21 -816 23 -1065 5 -974 -70 -1873
-315 -2727 -742 -912 -456 -1679 -1063 -2334 -1848 -545 -654 -955 -1369
-1248 -2178 -214 -592 -370 -1317 -402 -1873 -4 -63 -11 -121 -17 -128 -8 -10
-64 -12 -236 -12 -125 1 -233 5 -240 9 -14 9 -5 158 30 461 173 1492 788 2915
1759 4066 846 1002 1913 1765 3130 2237 778 302 1488 452 2405 510 28 2 -1614
4 -3647 5 l-3698 2 0 -7815z m8380 5375 l0 -620 -655 0 -655 0 0 620 0 620
655 0 655 0 0 -620z m2244 -92 c-8 -13 -244 -292 -783 -927 -162 -190 -315
-370 -340 -400 -118 -140 -882 -1038 -1336 -1571 -176 -206 -407 -478 -513
-605 -107 -126 -294 -335 -415 -464 -122 -128 -224 -238 -226 -244 -2 -6 10
-8 35 -4 22 4 111 7 200 7 l160 0 411 458 c225 251 446 497 489 545 l79 89 3
-544 2 -544 573 -12 c589 -13 1189 -35 1427 -52 208 -15 187 -22 195 63 75
830 230 1449 410 1634 63 65 95 70 150 22 179 -157 305 -818 322 -1684 23
-1231 -181 -2460 -453 -2729 -71 -70 -126 -54 -199 59 -148 231 -248 823 -262
1547 -6 321 -6 327 -27 332 -41 11 -46 7 -48 -36 l-1 -43 -4 43 c-2 24 -9 42
-16 42 -7 0 -61 5 -122 10 -280 24 -761 42 -1327 47 l-618 6 -2 -1067 -3
-1066 -650 0 -650 0 -3 1050 -2 1051 -88 -6 c-78 -4 -273 -15 -582 -30 -58 -3
-126 -8 -152 -11 l-46 -6 -425 -446 c-233 -246 -509 -535 -613 -642 l-189
-195 -28 -127 c-69 -316 -150 -501 -241 -544 -31 -15 -36 -15 -70 1 -153 73
-317 565 -410 1230 -62 444 -81 760 -81 1340 0 601 19 863 91 1265 63 348 174
612 268 636 197 49 432 -691 512 -1613 10 -109 18 -199 19 -200 1 -1 28 2 61
7 225 35 852 81 1350 99 l201 7 30 34 c17 19 112 131 212 249 l181 213 0 1287
0 1286 655 0 655 0 0 -590 0 -590 57 60 c31 33 98 103 148 155 50 52 133 140
185 195 127 134 469 493 601 630 58 60 249 261 425 445 175 184 411 431 524
549 113 118 225 236 248 263 43 46 61 61 46 36z m-6167 -2173 c68 -31 140 -83
207 -151 122 -124 234 -457 321 -957 14 -82 24 -156 22 -165 -3 -11 -5 -9 -6
6 0 13 -19 105 -42 205 -131 579 -300 849 -484 773 -172 -72 -302 -495 -371
-1201 -22 -229 -31 -986 -15 -1293 37 -703 122 -1241 267 -1692 53 -167 84
-232 148 -312 104 -130 206 -148 305 -55 42 40 30 15 -33 -71 -52 -70 -141
-134 -241 -172 -48 -19 -80 -24 -160 -24 -89 -1 -106 2 -159 27 l-59 27 -50
-32 c-28 -18 -55 -33 -61 -35 -6 -1 -36 -9 -66 -17 -104 -30 -210 -17 -320 39
-73 37 -186 152 -229 235 -19 36 -35 66 -36 68 -1 1 -46 -5 -101 -13 -149 -23
-187 -15 -286 58 -175 131 -323 307 -403 480 -102 220 -177 548 -265 1154 -81
564 -74 1190 21 1763 68 411 162 688 265 779 90 80 246 136 414 148 l86 6 34
65 c140 264 279 347 526 312 79 -11 214 -48 254 -70 9 -6 32 6 70 35 56 45
143 88 209 105 63 16 175 4 238 -25z m6943 24 c67 -15 161 -63 212 -108 l45
-40 62 25 c146 59 356 77 461 39 81 -29 189 -141 258 -265 l52 -96 114 -12
c204 -21 353 -86 429 -187 127 -165 247 -713 288 -1309 13 -195 7 -776 -10
-931 -18 -158 -49 -375 -82 -569 -119 -708 -222 -959 -498 -1219 -117 -110
-196 -163 -252 -171 -27 -4 -90 0 -149 9 -57 8 -104 15 -106 15 -1 0 -14 -25
-29 -55 -68 -133 -195 -246 -322 -285 -120 -37 -259 -18 -365 49 l-47 30 -58
-27 c-52 -24 -69 -27 -163 -27 -92 1 -113 4 -169 29 -145 63 -233 140 -291
256 -11 21 -7 20 21 -9 157 -158 324 -33 454 340 127 365 217 890 265 1544 18
240 24 954 11 1192 -43 757 -164 1276 -333 1428 -57 51 -101 63 -160 46 -154
-46 -287 -337 -402 -877 -41 -190 -46 -183 -11 16 96 547 209 885 337 1006
153 145 292 197 438 163z m-6383 -1351 c-3 -7 -5 -2 -5 12 0 14 2 19 5 13 2
-7 2 -19 0 -25z m5580 -40 c-3 -7 -5 -2 -5 12 0 14 2 19 5 13 2 -7 2 -19 0
-25z m-120 -1820 c-1 -46 -3 -9 -3 82 0 91 2 128 3 83 2 -46 2 -120 0 -165z
m-7869 -3055 l-3 -58 -82 -3 -83 -3 0 61 0 60 85 0 86 0 -3 -57z m22 -473 l0
-370 -105 0 -105 0 0 370 0 370 105 0 105 0 0 -370z m490 184 l135 -185 3 186
2 185 110 0 110 0 0 -370 0 -370 -109 0 -108 0 -139 189 -139 190 -3 -190 -2
-189 -105 0 -105 0 0 265 0 265 -40 0 -40 0 0 105 0 105 148 0 147 -1 135
-185z m1172 -178 c92 -198 168 -363 168 -368 0 -4 -52 -8 -116 -8 l-115 0 -21
50 -21 50 -183 0 -183 0 -22 -50 -21 -50 -119 0 -118 0 18 43 c10 23 62 134
115 246 121 258 116 241 72 241 l-36 0 0 105 0 105 207 -2 206 -3 169 -359z
m625 175 l138 -189 3 189 2 189 105 0 105 0 0 -370 0 -370 -107 1 -108 0 -135
185 -135 186 -3 -186 -2 -186 -110 0 -110 0 0 265 0 265 -40 0 -40 0 0 105 0
105 149 0 150 0 138 -189z m1200 137 l53 -52 0 -108 0 -109 -107 3 -108 3 -3
53 -3 52 -180 0 -179 0 0 -160 0 -160 275 0 275 0 0 -105 0 -105 -120 0 -120
0 0 -80 0 -80 -187 0 -188 0 75 42 c41 22 88 49 103 58 l29 17 -35 22 c-28 17
-50 21 -123 21 l-88 0 -53 52 -53 52 0 266 0 266 48 51 47 51 295 1 294 1 53
-52z m1320 0 l53 -52 0 -108 0 -109 -107 3 -108 3 -3 53 -3 52 -180 0 -179 0
0 -160 0 -160 275 0 275 0 0 -105 0 -105 -327 0 -327 0 -53 52 -53 52 0 269 0
268 46 49 47 50 296 0 295 0 53 -52z m920 0 l53 -52 0 -265 0 -265 -52 -53
-52 -53 -305 0 -305 0 -53 52 -53 52 0 265 0 265 52 53 52 53 305 0 305 0 53
-52z m865 -312 c92 -198 168 -363 168 -368 0 -4 -52 -8 -116 -8 l-115 0 -21
50 -21 50 -183 0 -183 0 -22 -50 -21 -50 -119 0 -118 0 18 43 c10 23 44 96 76
162 69 145 145 313 145 320 0 3 -16 5 -35 5 l-35 0 0 105 0 105 207 -2 207 -3
168 -359z m975 312 l53 -52 0 -108 0 -108 -105 0 -105 0 0 55 0 55 -185 0
-186 0 3 -157 3 -158 278 -3 277 -2 0 -105 0 -105 -332 0 -332 0 -53 52 -53
52 0 265 0 265 52 53 52 53 290 0 290 0 53 -52z m403 -78 l0 -130 170 0 170 0
0 130 0 130 105 0 105 0 0 -370 0 -370 -105 0 -105 0 0 130 0 130 -170 0 -170
0 0 -130 0 -130 -105 0 -105 0 0 265 0 265 -40 0 -40 0 0 105 0 105 145 0 145
0 0 -130z m870 -240 l0 -370 -110 0 -110 0 0 370 0 370 110 0 110 0 0 -370z
m489 181 l136 -185 3 187 2 187 110 0 110 0 0 -370 0 -370 -109 0 -109 0 -139
187 -138 187 -3 -187 -2 -187 -110 0 -110 0 0 265 0 265 -40 0 -40 0 0 105 0
106 152 -3 152 -3 135 -184z m1171 84 l0 -105 -250 0 -251 0 3 -157 3 -158
183 -3 182 -2 0 25 c0 25 -1 25 -80 25 l-80 0 0 110 0 110 185 0 185 0 0 -187
0 -187 -52 -53 -52 -53 -290 0 -290 0 -53 52 -53 52 0 265 0 265 52 53 52 53
303 0 303 0 0 -105z m-7905 -1093 c6 -4 46 -53 89 -110 44 -57 82 -99 86 -95
4 4 40 51 80 103 75 99 88 109 127 102 l23 -4 0 -224 0 -224 -40 0 -39 0 -3
152 -3 152 -73 -92 c-40 -50 -76 -92 -80 -92 -4 0 -38 41 -77 91 l-70 90 -3
-150 c-2 -139 -4 -150 -22 -156 -11 -4 -29 -3 -40 0 -19 6 -20 15 -20 230 0
169 3 225 13 228 18 8 41 8 52 -1z m716 -9 c7 -8 179 -428 179 -438 0 -4 -18
-5 -41 -3 -38 3 -42 6 -62 53 -11 28 -26 53 -32 57 -5 4 -45 8 -87 8 -86 0
-93 -5 -118 -82 -11 -35 -14 -38 -51 -38 -26 0 -39 4 -39 14 0 7 36 103 81
212 45 109 83 204 86 211 8 20 66 24 84 6z m445 -3 c50 -24 61 -46 38 -71 -21
-23 -37 -24 -69 -3 -14 9 -40 14 -66 12 -35 -2 -46 -8 -58 -30 -14 -24 -14
-28 3 -47 10 -11 48 -29 84 -40 97 -31 132 -66 132 -134 0 -81 -65 -137 -160
-137 -58 0 -128 29 -148 61 -12 19 -11 24 7 43 l22 21 39 -22 c72 -42 160 -24
160 33 0 26 -29 49 -75 60 -131 32 -183 107 -139 200 33 70 144 95 230 54z
m418 14 c10 -4 16 -18 16 -40 l0 -34 -65 0 -65 0 0 -189 c0 -188 0 -189 -22
-193 -58 -10 -57 -13 -60 190 l-3 187 -65 5 c-63 5 -65 6 -68 34 -2 16 2 32
10 37 15 10 298 12 322 3z m379 0 c12 -4 17 -16 17 -40 l0 -34 -120 0 -120 0
0 -55 0 -55 95 0 95 0 0 -34 c0 -42 -9 -46 -111 -46 l-79 0 0 -60 0 -60 125 0
125 0 0 -35 0 -35 -165 0 -165 0 0 224 c0 170 3 225 13 229 16 7 267 7 290 1z
m370 -22 c81 -51 88 -153 16 -227 l-29 -31 45 -76 c25 -43 45 -82 45 -88 0 -5
-19 -10 -42 -10 l-43 0 -43 80 -43 80 -50 0 -49 0 0 -80 0 -80 -40 0 -40 0 0
224 c0 206 1 225 18 229 9 2 62 3 118 2 84 -1 107 -5 137 -23z m576 18 c7 -4
11 -20 9 -36 -3 -28 -4 -29 -70 -32 l-68 -3 0 -189 c0 -180 -1 -189 -20 -195
-11 -3 -29 -3 -40 0 -19 6 -20 15 -20 196 l0 189 -65 0 -65 0 0 34 c0 24 5 36
18 39 28 8 308 6 321 -3z m333 -17 c56 -33 85 -121 57 -176 -6 -12 -24 -36
-40 -52 l-28 -30 44 -75 c24 -41 44 -81 45 -88 0 -9 -12 -12 -42 -10 -42 3
-44 5 -86 81 l-44 77 -49 0 -49 0 0 -79 c0 -74 -1 -79 -22 -83 -60 -10 -58
-17 -58 227 0 204 2 224 18 229 9 3 63 3 120 1 76 -3 112 -9 134 -22z m358 11
c7 -9 180 -429 180 -440 0 -3 -19 -4 -42 -2 -40 3 -43 5 -62 53 -11 28 -25 53
-30 57 -19 13 -163 9 -173 -4 -6 -7 -18 -34 -28 -60 -17 -46 -19 -48 -56 -48
-27 0 -39 4 -39 14 0 14 102 273 153 387 23 53 27 57 57 54 17 -1 35 -7 40
-11z m294 10 c14 -5 16 -35 16 -230 l0 -224 -40 0 -40 0 0 224 c0 228 1 233
37 235 6 1 18 -2 27 -5z m192 -2 c6 -4 60 -72 120 -152 l109 -145 3 148 c2
121 5 147 17 148 8 1 21 2 28 3 6 1 20 -2 30 -6 16 -8 17 -27 15 -226 l-3
-217 -36 -3 c-36 -3 -37 -2 -150 150 l-114 153 -3 -153 -3 -152 -39 0 -40 0 0
224 c0 205 1 225 18 229 27 7 36 7 48 -1z m754 -38 l0 -34 -120 0 -120 0 0
-55 0 -55 96 0 95 0 -3 -37 -3 -38 -92 -3 -93 -3 0 -59 0 -59 123 -3 122 -3 0
-30 0 -30 -162 -3 -163 -2 0 27 c0 16 -1 112 -3 215 -2 103 -1 192 3 197 6 10
251 20 298 12 18 -3 22 -10 22 -37z m300 37 c32 -7 54 -19 77 -45 29 -31 33
-43 33 -88 0 -55 -26 -113 -55 -124 -21 -9 -20 -13 30 -102 25 -44 45 -83 45
-86 0 -3 -20 -6 -44 -6 l-45 0 -42 80 -41 80 -49 0 -49 0 0 -80 0 -80 -40 0
-40 0 0 223 c0 123 3 227 7 230 9 10 159 8 213 -2z"/>
<path d="M4530 10114 c-115 -104 -195 -458 -231 -1019 -22 -355 -2 -1060 41
-1420 48 -399 131 -755 211 -905 91 -169 183 -185 278 -46 93 136 171 570 187
1054 l7 192 -25 0 -26 0 -6 -127 c-25 -512 -74 -844 -151 -1036 -84 -205 -168
-163 -264 131 -195 595 -256 1907 -126 2677 40 237 99 405 156 447 24 18 29
19 55 5 112 -58 231 -493 285 -1041 29 -294 25 -276 54 -276 23 0 25 4 25 49
0 65 -26 314 -51 486 -96 663 -255 977 -419 829z"/>
<path d="M10932 10116 c-98 -89 -179 -329 -247 -729 -24 -144 -49 -345 -61
-494 l-7 -83 29 0 30 0 12 144 c48 551 177 1043 291 1110 29 17 33 17 56 2 57
-37 124 -233 164 -484 47 -287 56 -440 56 -947 0 -473 -6 -601 -41 -925 -62
-581 -196 -1030 -307 -1030 -87 0 -174 273 -221 695 -20 171 -36 433 -36 571
0 116 -3 124 -47 124 -13 0 -14 -21 -8 -162 28 -713 112 -1140 246 -1252 73
-62 164 -13 232 127 292 598 350 2592 95 3206 -43 102 -89 151 -150 158 -42 5
-49 2 -86 -31z"/>
<path d="M5820 8039 c-439 -34 -628 -50 -647 -54 -22 -5 -23 -10 -26 -133 l-3
-127 -2 128 -2 128 -32 -3 -33 -3 -6 -235 c-7 -253 -21 -459 -45 -664 -8 -71
-13 -130 -11 -132 1 -2 81 90 177 203 96 114 307 362 468 550 160 189 292 346
292 348 0 3 -6 4 -12 4 -7 -1 -60 -5 -118 -10z"/>
<path d="M3996 4360 c-3 -8 -21 -57 -40 -107 l-34 -93 79 0 c43 0 79 1 79 3 0
1 -18 49 -39 107 -22 59 -42 98 -45 90z"/>
<path d="M7810 4210 l0 -160 193 2 192 3 3 158 3 157 -196 0 -195 0 0 -160z"/>
<path d="M8922 4350 c-26 -68 -62 -172 -62 -181 0 -5 34 -9 75 -9 41 0 75 1
75 3 0 1 -18 49 -39 107 -35 95 -40 103 -49 80z"/>
<path d="M5876 3206 c-36 -82 -35 -86 24 -86 59 0 61 7 26 90 l-24 55 -26 -59z"/>
<path d="M7365 3297 c-4 -8 -5 -39 -3 -68 l3 -54 58 -3 c78 -4 107 14 107 67
0 51 -18 64 -96 69 -50 3 -65 1 -69 -11z"/>
<path d="M8274 3296 c-3 -7 -4 -38 -2 -67 l3 -54 61 -3 c69 -3 98 13 110 60 4
21 0 33 -20 52 -21 22 -34 26 -86 26 -42 0 -62 -4 -66 -14z"/>
<path d="M8756 3206 c-36 -82 -35 -86 24 -86 59 0 60 3 26 86 l-24 59 -26 -59z"/>
<path d="M10220 3241 l0 -71 65 0 c74 0 105 20 105 68 0 51 -20 66 -99 70
l-71 4 0 -71z"/>
</g>
</svg>
